<svg xmlns="http://www.w3.org/2000/svg" width="135" height="40" fill="none"><path fill="#000" d="M0 5a5 5 0 0 1 5-5h125a5 5 0 0 1 5 5v30a5 5 0 0 1-5 5H5a5 5 0 0 1-5-5V5Z"/><path fill="#fff" fill-rule="evenodd" d="M29.35 8.168c.105 1.36-.313 2.617-1.151 3.665-.838 1.047-1.99 1.675-3.35 1.675-.106-1.361.313-2.618 1.151-3.56a4.857 4.857 0 0 1 3.35-1.78Zm4.294 7.748a5.14 5.14 0 0 0-2.513 4.398c0 1.99 1.152 3.875 3.037 4.503-.315 1.152-.838 2.303-1.571 3.246-.943 1.466-1.885 2.827-3.456 2.827-.76 0-1.25-.221-1.757-.449-.538-.243-1.094-.493-2.012-.493-.975 0-1.573.25-2.155.495-.481.202-.951.4-1.615.447-1.466 0-2.618-1.57-3.56-2.932-1.99-2.827-3.456-8.063-1.466-11.518.942-1.676 2.723-2.723 4.712-2.827.814 0 1.595.322 2.29.61.558.23 1.06.437 1.48.437.367 0 .846-.191 1.4-.412.865-.345 1.912-.763 2.998-.635 1.675.104 3.246.942 4.188 2.303Z" clip-rule="evenodd"/><path fill="#fff" d="M83.382 29.424c-1.78 0-3.037-.838-3.141-2.094h-1.78c.104 2.408 1.99 3.874 4.921 3.874 3.037 0 5.026-1.57 5.026-3.979 0-1.885-1.151-2.932-3.77-3.56l-1.465-.314c-1.676-.42-2.409-.943-2.409-1.885 0-1.152 1.047-1.99 2.618-1.99 1.57 0 2.618.838 2.723 2.095h1.99c-.105-2.2-1.99-3.77-4.713-3.77-2.722 0-4.712 1.57-4.712 3.77 0 1.78 1.047 2.827 3.456 3.455l1.675.419c1.675.419 2.408.942 2.408 1.99 0 1.151-1.151 1.99-2.827 1.99Z"/><path fill="#fff" fill-rule="evenodd" d="M44.534 27.435h4.921l1.257 3.56h2.094L48.094 18.01H46l-4.712 12.985h2.094l1.152-3.56Zm4.503-1.571h-3.98l1.885-5.76h.105l1.99 5.76Zm9.947 5.236c2.409 0 3.98-1.885 3.98-4.817 0-2.932-1.676-4.922-3.98-4.817-1.256 0-2.408.628-3.036 1.675v-1.57h-1.885v12.565h1.99v-4.712c.523 1.047 1.675 1.78 2.931 1.675Zm-.628-7.959c1.57 0 2.513 1.257 2.513 3.142 0 1.884-.942 3.141-2.513 3.141-1.466 0-2.513-1.256-2.513-3.141s1.047-3.142 2.513-3.142Zm14.974 3.142c0 2.932-1.57 4.816-3.98 4.816-1.256.105-2.407-.628-2.931-1.675v4.712h-1.99V21.571h1.885v1.57c.629-1.047 1.78-1.675 3.037-1.675 2.408-.105 3.979 1.885 3.979 4.817Zm-1.99 0c0-1.885-.942-3.142-2.513-3.142-1.466 0-2.513 1.257-2.513 3.142 0 1.884 1.047 3.141 2.513 3.141 1.571 0 2.513-1.256 2.513-3.141Z" clip-rule="evenodd"/><path fill="#fff" d="M92.388 19.372v2.094h1.78v1.57h-1.78v5.236c0 .838.314 1.152 1.151 1.152h.629v1.57c-.315.105-.733.105-1.048.105-1.884 0-2.617-.733-2.617-2.513v-5.445H89.14v-1.57h1.362v-2.2h1.885Z"/><path fill="#fff" fill-rule="evenodd" d="M99.822 21.466c-2.722 0-4.503 1.885-4.503 4.817 0 2.932 1.676 4.816 4.503 4.816 2.723 0 4.503-1.78 4.503-4.816 0-2.932-1.78-4.817-4.503-4.817Zm0 1.57c1.571 0 2.513 1.152 2.513 3.247 0 1.99-.942 3.246-2.513 3.246-1.57 0-2.513-1.152-2.513-3.246 0-2.095.942-3.246 2.513-3.246Z" clip-rule="evenodd"/><path fill="#fff" d="M105.895 21.466h1.885v1.675c.21-1.047 1.257-1.78 2.304-1.675.209 0 .419 0 .628.105v1.78c-.314-.105-.628-.105-.838-.105-1.047 0-1.989.838-1.989 1.885v5.968h-1.99v-9.633Z"/><path fill="#fff" fill-rule="evenodd" d="M115.634 31.1c2.094 0 3.874-1.257 4.083-2.933h-1.885c-.314.943-1.256 1.466-2.198 1.362h-.315c-1.361-.21-2.303-1.361-2.199-2.723v-.104h6.702v-.629c0-2.932-1.675-4.712-4.293-4.712-2.723 0-4.398 1.99-4.398 4.922 0 2.932 1.78 4.816 4.503 4.816Zm2.198-5.76h-4.712c0-1.36 1.048-2.408 2.304-2.408h.21c1.256.105 2.303 1.152 2.198 2.408Z" clip-rule="evenodd"/><path fill="#fff" d="M67.99 7.853h-.943v6.597h.943V7.853Z"/><path fill="#fff" fill-rule="evenodd" d="M44.743 8.168c1.571-.105 2.828 1.047 2.932 2.513v.523c0 1.99-1.047 3.142-2.931 3.142H42.44V8.063h2.303v.105Zm-1.256 5.445h1.152c1.047.104 1.99-.733 2.094-1.885v-.42c.105-1.046-.628-2.093-1.675-2.198h-1.571v4.503Zm5.34-1.571c-.105-1.257.733-2.304 1.99-2.408 1.256-.105 2.303.732 2.408 1.989v.419c.105 1.256-.733 2.304-1.99 2.408-1.256.105-2.303-.733-2.408-1.99v-.418Zm3.456 0c0-1.047-.42-1.57-1.257-1.57-.838 0-1.256.628-1.256 1.57 0 1.047.418 1.675 1.256 1.675.838 0 1.257-.628 1.257-1.675Z" clip-rule="evenodd"/><path fill="#fff" d="M58.251 14.45h.943l1.466-4.712h-.943l-.837 3.56h-.105l-.942-3.56h-.943l-.942 3.56h-.105l-.838-3.56h-.942l1.256 4.712h.943l.942-3.455h.105l.942 3.455Zm3.351-4.712h.943v.733h.104c.21-.523.838-.837 1.361-.837.838-.105 1.571.523 1.676 1.466v3.35h-.943v-2.827c0-.733-.314-1.152-1.047-1.152-.628 0-1.151.42-1.151 1.047v2.932h-.943V9.738Z"/><path fill="#fff" fill-rule="evenodd" d="M69.246 12.042c-.105-1.257.733-2.304 1.99-2.408 1.256-.105 2.303.732 2.408 1.989v.419c.105 1.256-.733 2.304-1.99 2.408-1.256.105-2.303-.733-2.408-1.99v-.418Zm3.56 0c0-1.047-.419-1.57-1.256-1.57-.838 0-1.257.628-1.257 1.57 0 1.047.419 1.675 1.257 1.675.733 0 1.256-.628 1.256-1.675Zm3.665-.314c-1.152 0-1.78.523-1.78 1.361 0 .105 0 .105-.105.21.105.732.838 1.36 1.571 1.256.628 0 1.152-.21 1.466-.733h.105v.628h.942v-3.246c0-.942-.733-1.57-1.885-1.57-1.047 0-1.78.523-1.885 1.36h.943c.105-.313.419-.523.942-.523.629 0 .943.21.943.733v.419l-1.257.105Zm1.257.523v.42c-.105.732-.629 1.151-1.257.942-.419 0-.838-.21-.838-.629 0-.314.315-.628.943-.628l1.152-.105Zm2.094-.209c0-1.466.733-2.408 1.99-2.408.628 0 1.151.314 1.466.837h.104V7.853h.943v6.597h-.943v-.733h-.105a1.671 1.671 0 0 1-1.466.838c-1.151 0-1.989-.942-1.989-2.513Zm1.047 0c0 1.047.524 1.57 1.257 1.57.733 0 1.256-.628 1.256-1.57 0-.942-.523-1.57-1.256-1.57-.838 0-1.257.628-1.257 1.57Zm9.215-2.408c-1.257.104-2.094 1.151-1.99 2.408v.419c.105 1.256 1.152 2.094 2.409 1.99 1.256-.105 2.094-1.153 1.99-2.41v-.418c-.106-1.256-1.153-2.094-2.41-1.99Zm.314.837c.838 0 1.257.524 1.257 1.57 0 1.048-.524 1.676-1.257 1.676-.838 0-1.257-.628-1.257-1.675 0-.942.42-1.57 1.257-1.57Z" clip-rule="evenodd"/><path fill="#fff" d="M93.853 9.738h.943v.733h.104c.21-.523.838-.837 1.362-.837.838-.105 1.57.523 1.675 1.466v3.35h-.942v-2.827c0-.733-.314-1.152-1.047-1.152-.629 0-1.152.42-1.152 1.047v2.932h-.943V9.738Zm9.215 0V8.586h-1.047v1.257h-.733v.733h.733v2.618c0 .942.419 1.256 1.466 1.256h.523v-.733h-.314c-.419 0-.628-.21-.628-.733v-2.408h1.047v-.838h-1.047Zm2.304-1.885h.942v2.618h.105c.209-.523.838-.942 1.466-.837.838 0 1.571.628 1.675 1.466v3.35h-.942v-2.827c0-.733-.314-1.152-1.047-1.152-.629 0-1.152.42-1.152 1.047v2.932h-.943l-.104-6.597Z"/><path fill="#fff" fill-rule="evenodd" d="M112.806 14.555c.943.105 1.885-.524 2.095-1.361l-.943.104c-.209.315-.733.629-1.152.524h-.104c-.733-.105-1.257-.628-1.152-1.361h3.351v-.314c0-1.466-.733-2.409-2.095-2.409h-.314c-1.256.105-2.094 1.257-1.885 2.409v.314c0 1.152 1.047 2.094 2.199 2.094Zm1.152-2.932h-2.408c0-.628.628-1.152 1.256-1.256h.105c.628.104 1.047.628 1.047 1.256Z" clip-rule="evenodd"/></svg>